<?xml version="1.0" encoding="UTF-8" standalone="no"?><!DOCTYPE svg PUBLIC "-//W3C//DTD SVG 1.1//EN" "http://www.w3.org/Graphics/SVG/1.1/DTD/svg11.dtd"><svg width="100%" height="100%" viewBox="0 0 165 119" version="1.1" xmlns="http://www.w3.org/2000/svg" xmlns:xlink="http://www.w3.org/1999/xlink" xml:space="preserve" xmlns:serif="http://www.serif.com/" style="fill-rule:evenodd;clip-rule:evenodd;stroke-linejoin:round;stroke-miterlimit:2;"><path d="M164.968,11.58c0,-6.391 -5.188,-11.58 -11.579,-11.58l-141.809,0c-6.391,0 -11.58,5.189 -11.58,11.58l0,95.411c0,6.391 5.189,11.58 11.58,11.58l141.809,0c6.391,0 11.579,-5.189 11.579,-11.58l0,-95.411Z" style="fill:#1a5e9a;"/><rect x="19.02" y="16.838" width="126.929" height="84.894" style="fill:#1a5e9a;fill-opacity:0;"/><g><g><path d="M101.757,58.905c-2.071,-3.41 -5.124,-5.765 -9.155,-7.058l11.484,-19.781l0,-3.799l-30.503,0l-11.252,38.236l-11.245,-38.236l-8.148,0l3.725,12.489l-7.605,25.747l-11.248,-38.236l-8.146,0l18.618,62.825l0.776,0l11.635,-38.933l11.638,38.933l0.774,0l15.941,-53.792l0.75,-1.275l13.119,0l-10.87,18.764l0,3.724l3.109,0c3.986,0 6.901,1.216 8.766,3.648c1.603,2.066 2.403,4.988 2.403,8.762c0,3.415 -0.748,6.337 -2.247,8.766c-1.499,2.432 -3.336,3.643 -5.508,3.643c-2.066,0 -3.867,-0.683 -5.396,-2.053c-1.523,-1.367 -2.757,-3.243 -3.685,-5.617l-6.364,2.632c1.291,3.931 3.285,7.044 5.973,9.346c2.686,2.298 5.849,3.452 9.471,3.452c4.803,0 8.721,-1.94 11.747,-5.817c3.028,-3.877 4.547,-8.664 4.547,-14.352c0.001,-4.601 -1.039,-8.61 -3.104,-12.018Z" style="fill:#fff;fill-rule:nonzero;"/><g><path d="M136.43,27.915l1.324,8.02l-4.679,8.935c0,0 -1.794,-3.794 -4.767,-5.891c-2.51,-1.768 -4.149,-2.153 -6.702,-1.623c-3.286,0.677 -7.011,4.6 -8.635,9.44c-1.948,5.793 -1.964,8.594 -2.029,11.17c-0.11,4.123 0.54,6.563 0.54,6.563c0,0 -2.834,-5.242 -2.808,-12.925c0.023,-5.483 0.881,-10.459 3.413,-15.366c2.236,-4.31 5.557,-6.9 8.502,-7.207c3.043,-0.316 5.453,1.152 7.315,2.741c1.95,1.665 3.92,5.312 3.92,5.312l4.606,-9.169Z" style="fill:#fff;fill-rule:nonzero;"/><path d="M137.007,73.294c0,0 -2.07,3.687 -3.353,5.111c-1.288,1.419 -3.586,3.927 -6.428,5.177c-2.847,1.25 -4.334,1.488 -7.147,1.219c-2.805,-0.27 -5.416,-1.893 -6.331,-2.573c-0.911,-0.677 -3.244,-2.677 -4.563,-4.533c-1.322,-1.864 -3.387,-5.586 -3.387,-5.586c0,0 1.147,3.732 1.871,5.314c0.414,0.91 1.688,3.694 3.494,6.122c1.68,2.27 4.954,6.162 9.933,7.042c4.979,0.877 8.396,-1.355 9.24,-1.894c0.845,-0.541 2.63,-2.038 3.757,-3.244c1.18,-1.258 2.293,-2.866 2.915,-3.829c0.455,-0.705 1.186,-2.135 1.186,-2.135l-1.187,-6.191Z" style="fill:#fff;fill-rule:nonzero;"/><path d="M142.566,28.973c0.539,0 0.789,0.151 0.789,0.526c0,0.36 -0.25,0.489 -0.773,0.489l-0.489,0l0,-1.015l0.473,0Zm0.104,-0.375l-1.155,0l0,3.066l0.577,0l0,-1.308l0.57,0l0.625,1.308l0.643,0l-0.682,-1.399c0.442,-0.089 0.699,-0.39 0.699,-0.826c0,-0.556 -0.421,-0.841 -1.277,-0.841Zm2.274,1.608c0,0.624 -0.24,1.203 -0.682,1.63c-0.464,0.452 -1.043,0.691 -1.681,0.691c-0.601,0 -1.193,-0.247 -1.637,-0.698c-0.442,-0.451 -0.689,-1.029 -0.689,-1.645c0,-0.617 0.256,-1.218 0.713,-1.683c0.429,-0.437 1.006,-0.67 1.634,-0.67c0.646,0 1.224,0.241 1.675,0.7c0.435,0.435 0.667,1.022 0.667,1.675Zm-2.348,-2.726c-0.73,0 -1.382,0.26 -1.876,0.766c-0.524,0.534 -0.818,1.224 -0.818,1.938c0,0.715 0.278,1.374 0.788,1.892c0.518,0.526 1.187,0.81 1.906,0.81c0.705,0 1.388,-0.284 1.921,-0.802c0.511,-0.495 0.788,-1.156 0.788,-1.9c0,-0.722 -0.286,-1.399 -0.781,-1.901c-0.516,-0.527 -1.192,-0.803 -1.928,-0.803Z" style="fill:#fff;"/></g></g></g></svg>