<?xml version="1.0" encoding="UTF-8" standalone="no"?><!DOCTYPE svg PUBLIC "-//W3C//DTD SVG 1.1//EN" "http://www.w3.org/Graphics/SVG/1.1/DTD/svg11.dtd"><svg width="100%" height="100%" viewBox="0 0 104 117" version="1.1" xmlns="http://www.w3.org/2000/svg" xmlns:xlink="http://www.w3.org/1999/xlink" xml:space="preserve" xmlns:serif="http://www.serif.com/" style="fill-rule:evenodd;clip-rule:evenodd;stroke-linecap:round;stroke-linejoin:round;stroke-miterlimit:1.5;"><g><path d="M68,20c0,-8.831 -7.169,-16 -16,-16l-32,0c-8.831,0 -16,7.169 -16,16l0,32c0,8.831 7.169,16 16,16l32,0c8.831,0 16,-7.169 16,-16l0,-32Z" style="fill:#5ad6fe;stroke:#c3c3c3;stroke-width:8px;"/><path d="M100,39.054c0,-8.83 -7.169,-16 -16,-16l-32,0c-8.831,0 -16,7.17 -16,16l0,57.892c0,8.83 7.169,16 16,16l32,0c8.831,0 16,-7.17 16,-16l0,-57.892Z" style="fill:#fff;stroke:#c3c3c3;stroke-width:8px;"/><g><path d="M74.434,83.625c0,-5.073 4.118,-9.191 9.191,-9.191" style="fill:none;stroke:#01455b;stroke-width:8px;"/><path d="M67.081,83.625c0,-9.131 7.413,-16.544 16.544,-16.544" style="fill:none;stroke:#026f93;stroke-width:8px;"/><path d="M59.728,83.625c0,-13.189 10.708,-23.897 23.897,-23.897" style="fill:none;stroke:#02afe6;stroke-width:8px;"/><path d="M52.375,83.625c0,-17.247 14.003,-31.25 31.25,-31.25" style="fill:none;stroke:#5ad6fe;stroke-width:8px;"/></g></g></svg>